<!--
       Copyright 2016 RIFT.IO Inc

       Licensed under the Apache License, Version 2.0 (the "License");
       you may not use this file except in compliance with the License.
       You may obtain a copy of the License at

           http://www.apache.org/licenses/LICENSE-2.0

       Unless required by applicable law or agreed to in writing, software
       distributed under the License is distributed on an "AS IS" BASIS,
       WITHOUT WARRANTIES OR CONDITIONS OF ANY KIND, either express or implied.
       See the License for the specific language governing permissions and
       limitations under the License.
-->
<svg xmlns="http://www.w3.org/2000/svg" width="378" height="412" viewBox="0 0 378 412"><title>  default</title><desc>  default</desc><g id="Page-1" style="fill:none;stroke-width:1;stroke:none"><path d="M188.8 0L0 103 0 311.2 188.8 412 377.7 311.2 377.7 104.1 188.8 0 188.8 0ZM324.6 114.1L188.9 186.5 53.8 112.8 188.8 39.2 324.6 114.1 324.6 114.1ZM34.3 141.3L171.7 216.2 171.7 363.9 34.3 290.7 34.3 141.3 34.3 141.3ZM206 363.9L206 216.3 343.3 143 343.3 290.7 206 363.9 206 363.9ZM274.1 243.9C268.4 244 263.9 248.7 264 254.4 264.1 260.1 268.8 264.6 274.5 264.5 280.2 264.4 284.7 259.7 284.6 254 284.5 248.3 279.8 243.8 274.1 243.9L274.1 243.9ZM93.1 255C93 260.7 97.5 265.4 103.2 265.5 108.9 265.6 113.5 261.1 113.6 255.4 113.8 249.7 109.3 245 103.6 244.9 97.9 244.8 93.2 249.3 93.1 255L93.1 255ZM188.8 98.3C183.2 98.3 178.5 102.9 178.5 108.6 178.5 114.3 183.2 118.9 188.8 118.9 194.5 118.9 199.1 114.3 199.1 108.6 199.1 102.9 194.5 98.3 188.8 98.3L188.8 98.3Z" id="default" fill="#000"/></g></svg>