<!--
       Copyright 2016 RIFT.IO Inc

       Licensed under the Apache License, Version 2.0 (the "License");
       you may not use this file except in compliance with the License.
       You may obtain a copy of the License at

           http://www.apache.org/licenses/LICENSE-2.0

       Unless required by applicable law or agreed to in writing, software
       distributed under the License is distributed on an "AS IS" BASIS,
       WITHOUT WARRANTIES OR CONDITIONS OF ANY KIND, either express or implied.
       See the License for the specific language governing permissions and
       limitations under the License.
-->
<svg xmlns="http://www.w3.org/2000/svg" viewBox="0 0 90.8 78.5"><path class="st0" d="M70.8 58.2c-0.7 0-1.4 0.1-2 0.3L51.5 42.7c0.7-1.1 1.2-2.4 1.2-3.8 0-1.4-0.4-2.7-1.2-3.8l15.1-13.9c1.1 0.9 2.6 1.5 4.2 1.5 3.7 0 6.7-3 6.7-6.6 0-3.7-3-6.6-6.7-6.6 -3.7 0-6.7 3-6.7 6.6 0 1.4 0.4 2.7 1.2 3.8L50.2 33.8c-1.1-0.9-2.6-1.5-4.2-1.5 -1.6 0-3.1 0.6-4.2 1.5L26.7 19.9c0.7-1.1 1.2-2.4 1.2-3.8 0-3.7-3-6.6-6.7-6.6 -3.7 0-6.7 3-6.7 6.6 0 3.3 2.5 6.1 5.7 6.6v35.6c-3.2 0.5-5.7 3.2-5.7 6.6 0 3.7 3 6.6 6.7 6.6 3.1 0 5.8-2.2 6.5-5.1h36.7c0.7 2.9 3.3 5.1 6.5 5.1 3.7 0 6.7-3 6.7-6.6C77.5 61.2 74.5 58.2 70.8 58.2zM64.2 64.5H27.8c-0.1-2.1-1.2-4-2.8-5.1l16.7-15.4c1.1 0.9 2.6 1.5 4.2 1.5 1.6 0 3.1-0.6 4.2-1.5L67 59.4C65.3 60.6 64.3 62.4 64.2 64.5zM25.4 21.3l15.1 13.9c-0.7 1.1-1.2 2.4-1.2 3.8 0 1.4 0.4 2.7 1.2 3.8L23.2 58.5c-0.3-0.1-0.7-0.2-1.1-0.2V22.7C23.4 22.5 24.5 22 25.4 21.3z"/></svg>