<?xml version="1.0" encoding="utf-8"?>
<!-- Generator: Adobe Illustrator 19.0.0, SVG Export Plug-In . SVG Version: 6.00 Build 0)  -->
<svg version="1.1" id="Layer_1" xmlns="http://www.w3.org/2000/svg" xmlns:xlink="http://www.w3.org/1999/xlink" x="0px" y="0px"
	 viewBox="0 0 90.8 78.5" style="enable-background:new 0 0 90.8 78.5;" xml:space="preserve">
<style type="text/css">
	.st0{fill:#CCCCCC;}
</style>
<g id="XMLID_28_">
	<g id="XMLID_88_">
		<path id="XMLID_89_" class="st0" d="M76.9,65.5v-9.7c1.1-0.1,2.2-0.6,3.1-1.4c2-2,2-5.2,0-7.1c-1.7-1.7-4.4-1.9-6.4-0.6L60.4,34
			c1.4-2,1.2-4.7-0.5-6.5c-1-1-2.3-1.5-3.6-1.5l-5.9-13.3c0.3-0.2,0.6-0.4,0.9-0.7c2-2,2-5.2,0-7.1c-2-2-5.2-2-7.1,0
			c-2,2-2,5.2,0,7.1c0.3,0.3,0.6,0.5,0.9,0.7l-6,13.4c-1.9-1.1-4.4-0.8-6,0.8c-1.9,1.9-1.9,4.9-0.2,6.8L18.5,46.7
			c-2-1.4-4.7-1.3-6.5,0.5c-2,2-2,5.2,0,7.1c0.7,0.7,1.7,1.2,2.6,1.4v9.8c-1,0.2-1.9,0.6-2.6,1.4c-2,2-2,5.2,0,7.1c2,2,5.2,2,7.1,0
			c2-2,2-5.2,0-7.1c-0.9-0.9-2-1.3-3.1-1.4v-9.7c1.1-0.1,2.2-0.6,3.1-1.4c1.8-1.8,1.9-4.7,0.4-6.6l14.4-12.9
			c0.6,0.4,1.2,0.6,1.8,0.7v10.3c-1,0.2-1.9,0.6-2.7,1.4c-2,2-2,5.2,0,7.1c0.8,0.8,1.7,1.2,2.7,1.4v9.8c-1,0.2-1.9,0.6-2.7,1.4
			c-2,2-2,5.2,0,7.1c2,2,5.2,2,7.1,0c2-2,2-5.2,0-7.1c-0.8-0.8-1.9-1.3-3-1.4v-9.7c1.1-0.1,2.2-0.6,3-1.4c2-2,2-5.2,0-7.1
			c-0.8-0.8-1.9-1.3-3-1.4V35.6c1.1-0.1,2.2-0.6,3-1.4c1.9-1.9,2-5.1,0.1-7.1l6.1-13.8c0.9,0.2,1.8,0.2,2.7,0l5.8,12.9
			c-0.7,0.2-1.4,0.6-2,1.2c-2,2-2,5.2,0,7.1c0.8,0.8,1.8,1.2,2.8,1.4l0,9.7c-1.1,0.1-2.1,0.6-3,1.4c-2,2-2,5.2,0,7.1
			c0.8,0.8,1.8,1.2,2.8,1.4v9.8c-1,0.2-2,0.6-2.8,1.4c-2,2-2,5.2,0,7.1c2,2,5.2,2,7.1,0c2-2,2-5.2,0-7.1c-0.8-0.8-1.9-1.3-2.9-1.4
			v-9.7c1.1-0.1,2.1-0.6,2.9-1.4c2-2,2-5.2,0-7.1C58.9,46.4,58,46,57,45.8l0-9.7c0.9-0.1,1.7-0.5,2.4-1l13.2,12.6
			c-1.6,2-1.5,4.9,0.3,6.7c0.7,0.7,1.7,1.2,2.6,1.4v9.8c-1,0.2-1.9,0.6-2.6,1.4c-2,2-2,5.2,0,7.1c2,2,5.2,2,7.1,0c2-2,2-5.2,0-7.1
			C79.2,66,78.1,65.6,76.9,65.5z"/>
	</g>
</g>
</svg>
