<?xml version="1.0" encoding="utf-8"?>
<!-- Generator: Adobe Illustrator 19.0.0, SVG Export Plug-In . SVG Version: 6.00 Build 0)  -->
<!DOCTYPE svg PUBLIC "-//W3C//DTD SVG 1.1//EN" "http://www.w3.org/Graphics/SVG/1.1/DTD/svg11.dtd">
<svg version="1.1" id="Layer_1" xmlns="http://www.w3.org/2000/svg" xmlns:xlink="http://www.w3.org/1999/xlink" x="0px" y="0px"
	 viewBox="0 0 339.3 128.7" enable-background="new 0 0 339.3 128.7" xml:space="preserve">
<g>
	<g id="XMLID_412_">
		<path id="XMLID_413_" fill="#CCCCCC" d="M34.7,119.8h37.4V7.8H34.7V119.8z M81.5,119.8H119V7.8H81.5V119.8z M175.1,119.8h37.4V7.8
			h-37.4V119.8z M222,119.8h37.4V7.8H222V119.8z M268.8,119.8h37.4V7.8h-37.4V119.8z M322.2,108.2h-0.9v0.9h1.9v-1.9h-0.9V108.2z
			 M216.4,109.1h2.8v-0.9h-2.8V109.1z M74.1,109.1H77v-0.9h-2.8V109.1z M126.6,109.1h2.8v-0.9h-2.8V109.1z M119.1,109.1h2.8v-0.9
			h-2.8V109.1z M141.5,109.1h2.8v-0.9h-2.8V109.1z M171.5,109.1h2.8v-0.9h-2.8V109.1z M134.1,109.1h2.8v-0.9h-2.8V109.1z M149,109.1
			h2.8v-0.9H149V109.1z M164,109.1h2.8v-0.9H164V109.1z M156.5,109.1h2.8v-0.9h-2.8V109.1z M261.4,109.1h2.8v-0.9h-2.8V109.1z
			 M306.3,109.1h2.8v-0.9h-2.8V109.1z M21.7,109.1h2.8v-0.9h-2.8V109.1z M29.2,109.1H32v-0.9h-2.8V109.1z M313.8,109.1h2.8v-0.9
			h-2.8V109.1z M16.1,107.2h-0.9v1.9H17v-0.9h-0.9V107.2z M16.1,41.5h-0.9v2.7h0.9V41.5z M16.1,48.8h-0.9v2.7h0.9V48.8z M16.1,26.9
			h-0.9v2.7h0.9V26.9z M16.1,56.1h-0.9v2.7h0.9V56.1z M16.1,34.2h-0.9v2.7h0.9V34.2z M16.1,92.6h-0.9v2.7h0.9V92.6z M16.1,99.9h-0.9
			v2.7h0.9V99.9z M16.1,78h-0.9v2.7h0.9V78z M16.1,85.3h-0.9v2.7h0.9V85.3z M16.1,63.4h-0.9v2.7h0.9V63.4z M16.1,70.7h-0.9v2.7h0.9
			V70.7z M15.2,22.3h0.9v-0.9H17v-0.9h-1.9V22.3z M151.8,20.4H149v0.9h2.8V20.4z M159.3,20.4h-2.8v0.9h2.8V20.4z M313.8,21.4h2.8
			v-0.9h-2.8V21.4z M144.4,20.4h-2.8v0.9h2.8V20.4z M129.4,20.4h-2.8v0.9h2.8V20.4z M21.7,21.4h2.8v-0.9h-2.8V21.4z M136.9,20.4
			h-2.8v0.9h2.8V20.4z M216.4,21.4h2.8v-0.9h-2.8V21.4z M74.1,21.4H77v-0.9h-2.8V21.4z M171.5,21.4h2.8v-0.9h-2.8V21.4z M166.8,20.4
			H164v0.9h2.8V20.4z M29.2,21.4H32v-0.9h-2.8V21.4z M119.1,21.4h2.8v-0.9h-2.8V21.4z M306.3,21.4h2.8v-0.9h-2.8V21.4z M261.4,21.4
			h2.8v-0.9h-2.8V21.4z M321.3,20.4v0.9h0.9v0.9h0.9v-1.9H321.3z M322.2,36.9h0.9v-2.7h-0.9V36.9z M322.2,29.6h0.9v-2.7h-0.9V29.6z
			 M322.2,44.2h0.9v-2.7h-0.9V44.2z M322.2,95.4h0.9v-2.7h-0.9V95.4z M322.2,88.1h0.9v-2.7h-0.9V88.1z M322.2,102.7h0.9v-2.7h-0.9
			V102.7z M322.2,80.7h0.9V78h-0.9V80.7z M322.2,66.1h0.9v-2.7h-0.9V66.1z M322.2,58.8h0.9v-2.7h-0.9V58.8z M322.2,51.5h0.9v-2.7
			h-0.9V51.5z M322.2,73.4h0.9v-2.7h-0.9V73.4z M126.1,99.1h42.1V28.4h-42.1V99.1z"/>
	</g>
</g>
</svg>
