<?xml version="1.0" encoding="utf-8"?>
<!-- Generator: Adobe Illustrator 19.0.0, SVG Export Plug-In . SVG Version: 6.00 Build 0)  -->
<svg version="1.1" id="Layer_1" xmlns="http://www.w3.org/2000/svg" xmlns:xlink="http://www.w3.org/1999/xlink" x="0px" y="0px"
	 viewBox="0 0 90.8 78.5" style="enable-background:new 0 0 90.8 78.5;" xml:space="preserve">
<style type="text/css">
	.st0{fill:#FFFFFF;}
</style>
<g>
	<g id="XMLID_40_">
		<path id="XMLID_41_" class="st0" d="M65.9,41.2c0.2,1.1,0.6,2.1,1.5,3c2.1,2.1,5.4,2.1,7.5,0c2.1-2.1,2.1-5.4,0-7.5
			c-2.1-2.1-5.4-2.1-7.5,0c-0.8,0.8-1.3,1.9-1.5,3l-15.2,0c-0.1-0.8-0.5-1.7-1-2.4L68,19c2.1,1.6,5,1.4,6.9-0.5
			c2.1-2.1,2.1-5.4,0-7.5c-2.1-2.1-5.4-2.1-7.5,0c-1.9,1.9-2,4.8-0.5,6.9L48.6,36.3c-0.7-0.5-1.5-0.9-2.3-1L46.2,20
			c1.1-0.2,2.1-0.6,3-1.5c2.1-2.1,2.1-5.4,0-7.5c-2.1-2.1-5.4-2.1-7.5,0c-2.1,2.1-2.1,5.4,0,7.5c0.8,0.8,1.9,1.3,3,1.5l0.1,15.3
			c-1,0.1-2,0.6-2.8,1.3L23.5,18.5c2-2.1,2-5.4,0-7.5C21.4,9,18.1,9,16,11c-2.1,2.1-2.1,5.4,0,7.5c1.7,1.7,4.3,2,6.3,0.9L41,37.7
			c-0.4,0.6-0.6,1.3-0.8,2.1l-15.2,0c-0.2-1.1-0.6-2.2-1.5-3c-2.1-2.1-5.4-2.1-7.5,0c-2.1,2.1-2.1,5.4,0,7.5c2.1,2.1,5.4,2.1,7.5,0
			c0.8-0.8,1.3-1.9,1.5-2.9l15.2,0c0.1,0.9,0.5,1.7,1,2.4L22.9,62c-2.1-1.6-5-1.4-6.9,0.5c-2.1,2.1-2.1,5.4,0,7.5
			c2.1,2.1,5.4,2.1,7.5,0c1.9-1.9,2-4.8,0.5-6.9l18.3-18.3c0.8,0.6,1.6,0.9,2.5,1l0.1,15.2c-1.2,0.1-2.3,0.6-3.2,1.5
			c-2.1,2.1-2.1,5.4,0,7.5c2.1,2.1,5.4,2.1,7.5,0c2.1-2.1,2.1-5.4,0-7.5c-0.8-0.8-1.8-1.3-2.8-1.5l-0.1-15.2
			c0.7-0.1,1.4-0.4,2.1-0.8l18.5,18.1c-1.5,2.1-1.4,5,0.5,6.9c2.1,2.1,5.4,2.1,7.5,0c2.1-2.1,2.1-5.4,0-7.5c-1.9-1.9-4.9-2-6.9-0.4
			L49.5,43.9c0.7-0.8,1.1-1.7,1.2-2.7L65.9,41.2z"/>
	</g>
</g>
</svg>
