<?xml version="1.0" encoding="utf-8"?>
<!-- Generator: Adobe Illustrator 19.0.0, SVG Export Plug-In . SVG Version: 6.00 Build 0)  -->
<!DOCTYPE svg PUBLIC "-//W3C//DTD SVG 1.1//EN" "http://www.w3.org/Graphics/SVG/1.1/DTD/svg11.dtd">
<svg version="1.1" id="Layer_1" xmlns="http://www.w3.org/2000/svg" xmlns:xlink="http://www.w3.org/1999/xlink" x="0px" y="0px"
	 viewBox="0 0 92.6 93.7" enable-background="new 0 0 92.6 93.7" xml:space="preserve">
<g>
	<g id="XMLID_40_">
		<path id="XMLID_41_" fill="#FFFFFF" d="M77.5,73.7c-1,0-1.9,0.3-2.6,0.8L67.3,67c0.5-0.8,0.8-1.7,0.8-2.7c0-2.7-2.1-4.8-4.8-4.8
			c-1,0-2,0.3-2.7,0.9L49,48.8c0.8-0.9,1.4-2.1,1.4-3.4c0-0.8-0.2-1.5-0.5-2.2l10.6-10.6c0.8,0.6,1.8,1,2.9,1c2.6,0,4.8-2.2,4.8-4.8
			c0-1.1-0.4-2.1-1-2.9l8-7.9c0.8,0.6,1.8,1,2.9,1c2.6,0,4.8-2.2,4.8-4.8c0-2.7-2.1-4.8-4.8-4.8c-2.6,0-4.8,2.2-4.8,4.8
			c0,1.1,0.4,2.1,1,2.9l-8,8c-0.8-0.6-1.8-0.9-2.8-0.9c-2.6,0-4.8,2.2-4.8,4.8c0,1.1,0.3,2,0.9,2.8L49,42.1
			c-0.9-0.9-2.1-1.5-3.5-1.5c-1.3,0-2.5,0.5-3.4,1.4L31.7,31.6c0.5-0.8,0.9-1.7,0.9-2.7c0-2.7-2.1-4.8-4.8-4.8c-1,0-2,0.3-2.8,0.9
			l-7.5-7.5c0.6-0.8,0.9-1.8,0.9-2.9c0-2.7-2.1-4.8-4.8-4.8c-2.6,0-4.8,2.2-4.8,4.8c0,2.7,2.1,4.8,4.8,4.8c1.1,0,2.1-0.4,2.9-1
			l7.5,7.5c-0.6,0.8-1,1.8-1,3c0,2.7,2.1,4.8,4.8,4.8c1.1,0,2.2-0.4,3-1.1l10.6,10.5c-0.4,0.7-0.6,1.5-0.6,2.3
			c0,1.4,0.6,2.6,1.5,3.5L30.7,60.5c-0.8-0.6-1.8-1-2.9-1c-2.6,0-4.8,2.2-4.8,4.8c0,1.1,0.4,2.1,1,2.9l-6.6,6.6
			c-0.8-0.6-1.8-1-2.9-1c-2.6,0-4.8,2.2-4.8,4.8c0,2.7,2.1,4.8,4.8,4.8c2.6,0,4.8-2.2,4.8-4.8c0-1.1-0.4-2.1-1-2.9l6.6-6.6
			c0.8,0.6,1.8,0.9,2.8,0.9c2.6,0,4.8-2.2,4.8-4.8c0-1.1-0.3-2-0.9-2.8l11.8-11.8c0.7,0.3,1.4,0.5,2.2,0.5c0.8,0,1.6-0.2,2.3-0.6
			l11.8,11.7c-0.7,0.8-1.1,1.9-1.1,3c0,2.7,2.1,4.8,4.8,4.8c1.2,0,2.2-0.4,3-1.1l7.5,7.4c-0.7,0.8-1.2,1.9-1.2,3.1
			c0,2.7,2.1,4.8,4.8,4.8s4.8-2.2,4.8-4.8C82.3,75.9,80.2,73.7,77.5,73.7z"/>
	</g>
</g>
</svg>
