<?xml version="1.0" encoding="utf-8"?>
<!-- Generator: Adobe Illustrator 19.0.0, SVG Export Plug-In . SVG Version: 6.00 Build 0)  -->
<svg version="1.1" id="Layer_1" xmlns="http://www.w3.org/2000/svg" xmlns:xlink="http://www.w3.org/1999/xlink" x="0px" y="0px"
	 viewBox="0 0 90.8 78.5" style="enable-background:new 0 0 90.8 78.5;" xml:space="preserve">
<style type="text/css">
	.st0{fill:#CCCCCC;}
</style>
<g id="XMLID_28_">
	<g id="XMLID_99_">
		<path id="XMLID_100_" class="st0" d="M78.1,67.1c-1,0-1.9,0.3-2.7,0.8l-7.8-7.7c0.5-0.8,0.9-1.8,0.9-2.8c0-2.5-1.8-4.5-4.2-4.9
			V25.9c2.4-0.3,4.2-2.4,4.2-4.9c0-1.1-0.4-2.2-1-3l8.2-8.2c0.8,0.6,1.8,1,3,1c2.7,0,4.9-2.2,4.9-5s-2.2-5-4.9-5
			c-2.7,0-4.9,2.2-4.9,5c0,1.1,0.4,2.1,1,2.9l-8.2,8.2c-0.8-0.6-1.8-1-2.9-1c-2.5,0-4.5,1.8-4.9,4.2H31.8c-0.3-2.4-2.4-4.2-4.9-4.2
			c-1.1,0-2,0.3-2.9,0.9l-7.7-7.7c0.6-0.8,1-1.8,1-2.9c0-2.7-2.2-5-4.9-5s-4.9,2.2-4.9,5c0,2.7,2.2,5,4.9,5c1.1,0,2.1-0.4,3-1
			l7.7,7.7c-0.7,0.8-1.1,1.9-1.1,3c0,2.5,1.8,4.5,4.2,4.9v26.6c-2.4,0.3-4.2,2.4-4.2,4.9c0,1.1,0.4,2.2,1,3l-6.8,6.7
			c-0.8-0.6-1.8-1-3-1c-2.7,0-4.9,2.2-4.9,5s2.2,5,4.9,5c2.7,0,4.9-2.2,4.9-5c0-1.1-0.4-2.1-1-2.9l6.8-6.8c0.8,0.6,1.8,1,2.9,1
			c2.3,0,4.2-1.6,4.8-3.8h27.1c0.5,2.2,2.5,3.8,4.8,3.8c1.2,0,2.3-0.4,3.1-1.1l7.7,7.6c-0.7,0.9-1.2,2-1.2,3.2c0,2.7,2.2,5,4.9,5
			s4.9-2.2,4.9-5C83,69.3,80.8,67.1,78.1,67.1z M48.8,41.5c0.9-0.9,1.4-2.1,1.4-3.4c0-0.8-0.2-1.5-0.5-2.2L60.6,25
			c0.7,0.5,1.4,0.9,2.3,1v26.6c-0.8,0.1-1.5,0.4-2.1,0.8L48.8,41.5z M59.6,23.9L48.8,34.7c-0.9-1-2.2-1.6-3.6-1.6
			c-1.4,0-2.6,0.6-3.5,1.5L31,23.9c0.4-0.6,0.7-1.3,0.8-2.1h26.9C58.8,22.6,59.1,23.3,59.6,23.9z M30,24.9l10.9,10.8
			c-0.4,0.7-0.6,1.5-0.6,2.3c0,1.4,0.6,2.7,1.5,3.6L30,53.5c-0.7-0.5-1.4-0.9-2.3-1V25.9C28.6,25.8,29.4,25.4,30,24.9z M31,54.5
			L43,42.5c0.7,0.3,1.4,0.6,2.2,0.6c0.9,0,1.7-0.2,2.4-0.6l12.1,12c-0.6,0.8-1,1.8-1.1,2.8H31.9C31.8,56.2,31.5,55.3,31,54.5z"/>
	</g>
</g>
</svg>
