<?xml version="1.0" encoding="utf-8"?>
<!-- Generator: Adobe Illustrator 19.0.0, SVG Export Plug-In . SVG Version: 6.00 Build 0)  -->
<!DOCTYPE svg PUBLIC "-//W3C//DTD SVG 1.1//EN" "http://www.w3.org/Graphics/SVG/1.1/DTD/svg11.dtd">
<svg version="1.1" id="Layer_1" xmlns="http://www.w3.org/2000/svg" xmlns:xlink="http://www.w3.org/1999/xlink" x="0px" y="0px"
	 viewBox="0 0 354.1 137.3" enable-background="new 0 0 354.1 137.3" xml:space="preserve">
<g>
	<g id="XMLID_440_">
		<path id="XMLID_441_" fill="#CCCCCC" d="M125.9,48.9h-45v37.6h45V48.9z M225.9,48.9h-45v37.6h45V48.9z M283.4,42.2h-10V8.1h-40
			v34.1h-60V22.6h1.1v-1h-1.1V8.1h-40v13.5h-1.9v1h1.9v19.6h-60V8.1h-40v120h40v-35h60v22.5h-1.9v1h1.9v11.5h40v-11.5h1.1v-1h-1.1
			V93.1h60v35h40v-35h10v35h40V8.1h-40V42.2z M133.4,92.1h-60V43.2h60V92.1z M233.4,92.1h-60V43.2h60V92.1z M283.4,92.1h-10V43.2h10
			V92.1z M340.6,115.6h-1v1h2v-2h-1V115.6z M275.6,116.6h3v-1h-3V116.6z M203.6,116.6h3v-1h-3V116.6z M323.6,116.6h3v-1h-3V116.6z
			 M219.6,116.6h3v-1h-3V116.6z M227.6,116.6h3v-1h-3V116.6z M331.6,116.6h3v-1h-3V116.6z M75.6,116.6h3v-1h-3V116.6z M83.6,116.6h3
			v-1h-3V116.6z M91.6,116.6h3v-1h-3V116.6z M211.6,116.6h3v-1h-3V116.6z M195.6,116.6h3v-1h-3V116.6z M99.6,116.6h3v-1h-3V116.6z
			 M27.6,116.6h3v-1h-3V116.6z M19.6,116.6h3v-1h-3V116.6z M187.6,116.6h3v-1h-3V116.6z M179.6,116.6h3v-1h-3V116.6z M123.6,116.6h3
			v-1h-3V116.6z M107.6,116.6h3v-1h-3V116.6z M115.6,116.6h3v-1h-3V116.6z M13.6,114.6h-1v2h2v-1h-1V114.6z M13.6,91.2h-1v2.9h1
			V91.2z M13.6,83.3h-1v2.9h1V83.3z M13.6,99h-1v2.9h1V99z M13.6,106.8h-1v2.9h1V106.8z M13.6,28.5h-1v2.9h1V28.5z M13.6,75.5h-1
			v2.9h1V75.5z M13.6,59.8h-1v2.9h1V59.8z M13.6,67.7h-1v2.9h1V67.7z M13.6,36.4h-1v2.9h1V36.4z M13.6,44.2h-1v2.9h1V44.2z M13.6,52
			h-1V55h1V52z M12.6,23.6h1v-1h1v-1h-2V23.6z M278.6,21.6h-3v1h3V21.6z M198.6,21.6h-3v1h3V21.6z M118.6,21.6h-3v1h3V21.6z
			 M110.6,21.6h-3v1h3V21.6z M126.6,21.6h-3v1h3V21.6z M230.6,21.6h-3v1h3V21.6z M182.6,21.6h-3v1h3V21.6z M94.6,21.6h-3v1h3V21.6z
			 M102.6,21.6h-3v1h3V21.6z M78.6,21.6h-3v1h3V21.6z M222.6,21.6h-3v1h3V21.6z M214.6,21.6h-3v1h3V21.6z M190.6,21.6h-3v1h3V21.6z
			 M206.6,21.6h-3v1h3V21.6z M86.6,21.6h-3v1h3V21.6z M19.6,22.6h3v-1h-3V22.6z M331.6,22.6h3v-1h-3V22.6z M323.6,22.6h3v-1h-3V22.6
			z M27.6,22.6h3v-1h-3V22.6z M339.6,21.6v1h1v1h1v-2H339.6z M340.6,47.1h1v-2.9h-1V47.1z M340.6,55h1V52h-1V55z M340.6,31.5h1v-2.9
			h-1V31.5z M340.6,39.3h1v-2.9h-1V39.3z M340.6,62.8h1v-2.9h-1V62.8z M340.6,101.9h1V99h-1V101.9z M340.6,109.7h1v-2.9h-1V109.7z
			 M340.6,94.1h1v-2.9h-1V94.1z M340.6,86.3h1v-2.9h-1V86.3z M340.6,70.6h1v-2.9h-1V70.6z M340.6,78.4h1v-2.9h-1V78.4z"/>
	</g>
</g>
</svg>
