<?xml version="1.0" encoding="utf-8"?>
<!-- Generator: Adobe Illustrator 19.0.0, SVG Export Plug-In . SVG Version: 6.00 Build 0)  -->
<svg version="1.1" id="Layer_1" xmlns="http://www.w3.org/2000/svg" xmlns:xlink="http://www.w3.org/1999/xlink" x="0px" y="0px"
	 viewBox="0 0 80 80" style="enable-background:new 0 0 80 80;" xml:space="preserve">
<style type="text/css">
	.st0{fill:#CCCCCC;}
</style>
<g id="XMLID_28_">
	<g id="XMLID_100_">
		<path id="XMLID_101_" class="st0" d="M6.5,22.3c-3.6,0-6.5,2.9-6.5,6.5c0,3.6,2.9,6.5,6.5,6.5c3.6,0,6.5-2.9,6.5-6.5
			C13,25.2,10.1,22.3,6.5,22.3z M6.5,67C2.9,67,0,69.9,0,73.5C0,77.1,2.9,80,6.5,80c3.6,0,6.5-2.9,6.5-6.5C13,69.9,10.1,67,6.5,67z
			 M28.8,13c1.5,0,2.8-0.5,3.9-1.3L46,24.9c-0.8,1.1-1.3,2.4-1.3,3.9c0,3.6,2.9,6.5,6.5,6.5c3.6,0,6.5-2.9,6.5-6.5
			c0-3.6-2.9-6.5-6.5-6.5c-1.5,0-2.8,0.5-3.9,1.3L34,10.4c0.8-1.1,1.3-2.4,1.3-3.9c0-3.6-2.9-6.5-6.5-6.5c-3.6,0-6.5,2.9-6.5,6.5
			C22.3,10.1,25.2,13,28.8,13z M73.5,13c3.6,0,6.5-2.9,6.5-6.5C80,2.9,77.1,0,73.5,0C69.9,0,67,2.9,67,6.5C67,10.1,69.9,13,73.5,13z
			 M28.8,44.7c-3.6,0-6.5,2.9-6.5,6.5c0,3.6,2.9,6.5,6.5,6.5c3.6,0,6.5-2.9,6.5-6.5C35.3,47.6,32.4,44.7,28.8,44.7z M73.5,44.7
			c-3.6,0-6.5,2.9-6.5,6.5c0,1.8,0.7,3.4,1.9,4.6L55.7,68.8c-1.2-1.2-2.8-1.9-4.6-1.9c-3.6,0-6.5,2.9-6.5,6.5c0,3.6,2.9,6.5,6.5,6.5
			c3.6,0,6.5-2.9,6.5-6.5c0-1.1-0.3-2.2-0.8-3.1l13.5-13.5c0.9,0.5,2,0.8,3.1,0.8c3.6,0,6.5-2.9,6.5-6.5
			C80,47.6,77.1,44.7,73.5,44.7z"/>
	</g>
</g>
</svg>
