<?xml version="1.0" encoding="utf-8"?>
<!-- Generator: Adobe Illustrator 19.0.0, SVG Export Plug-In . SVG Version: 6.00 Build 0)  -->
<svg version="1.1" id="Layer_1" xmlns="http://www.w3.org/2000/svg" xmlns:xlink="http://www.w3.org/1999/xlink" x="0px" y="0px"
	 viewBox="0 0 94 74" style="enable-background:new 0 0 94 74;" xml:space="preserve">
<style type="text/css">
	.st0{fill:#FFFFFF;}
</style>
<g>
	<g id="XMLID_96_">
		<path id="XMLID_97_" class="st0" d="M89.1,54.9l-9.6-13c0.2-0.1,0.3-0.3,0.4-0.4c2.3-2.3,2.4-5.9,0.5-8.3L89.6,20
			c1.1,0.6,2.6,0.5,3.6-0.5c1.2-1.2,1.2-3.1,0-4.3c-1.2-1.2-3-1.2-4.2,0c-1.2,1.2-1.2,3.1,0,4.3c0.1,0.1,0.1,0.1,0.2,0.1l-9,13
			c0,0-0.1-0.1-0.1-0.1c-1.8-1.9-4.6-2.3-6.8-1.4L51,8.8c0.9-2.3,0.5-5-1.3-6.9c-2.4-2.5-6.4-2.5-8.8,0c-1.9,1.9-2.3,4.8-1.2,7.2
			l-22,22.2c-1.8-0.9-4-0.8-5.7,0.2L4.8,19.8c0.1-0.1,0.2-0.2,0.3-0.2c1.2-1.2,1.2-3.1,0-4.3c-1.2-1.2-3-1.2-4.2,0
			c-1.2,1.2-1.2,3.1,0,4.3c0.9,0.9,2.3,1.1,3.4,0.6l7.2,11.7c-0.3,0.2-0.6,0.5-0.9,0.7c-2.4,2.5-2.4,6.5,0,8.9
			c0.3,0.3,0.6,0.6,0.9,0.8L4.2,54.5c-1.1-0.5-2.5-0.3-3.4,0.6c-1.2,1.2-1.2,3.1,0,4.3c1.2,1.2,3,1.2,4.2,0c1.2-1.2,1.2-3.1,0-4.3
			c-0.1-0.1-0.2-0.2-0.3-0.3L12,42.6c1.5,0.8,3.2,1,4.7,0.5l22.5,22.8c-0.6,2.2-0.1,4.6,1.6,6.3c2.4,2.5,6.4,2.5,8.8,0
			c1.6-1.6,2.1-3.9,1.7-5.9l22.8-23.1c1.7,0.4,3.5,0.1,4.9-0.9l9.6,13l0.2-0.2c-1.2,1.2-1.2,3.1,0,4.3c1.2,1.2,3,1.2,4.2,0
			c1.2-1.2,1.2-3.1,0-4.3C92,53.9,90.3,53.9,89.1,54.9z M71.6,32.1c-0.2,0.1-0.3,0.3-0.4,0.4c-1.5,1.5-2.1,3.6-1.7,5.6h-18
			c0.3-2-0.2-4-1.7-5.6c-1-1-2.3-1.6-3.6-1.8V12.6c1.3-0.2,2.6-0.8,3.6-1.8c0.1-0.1,0.3-0.3,0.4-0.4L71.6,32.1z M40.7,10.6
			c0.1,0.1,0.1,0.1,0.2,0.2c1,1,2.2,1.6,3.4,1.8v18.2c-1.3,0.2-2.5,0.8-3.4,1.8c-1.5,1.5-2.1,3.6-1.7,5.6h-18c0.4-2-0.2-4.1-1.7-5.6
			c-0.1-0.1-0.1-0.1-0.2-0.2L40.7,10.6z M18.5,42.2c0.3-0.2,0.6-0.5,0.9-0.8c0.5-0.5,0.8-1,1.1-1.5h19.2c0.3,0.6,0.7,1.1,1.1,1.6
			c1,1,2.2,1.6,3.4,1.8v18.1c-1.3,0.2-2.5,0.8-3.4,1.8c-0.3,0.3-0.5,0.6-0.8,0.9L18.5,42.2z M50.6,64.4c-0.3-0.4-0.6-0.8-0.9-1.2
			c-1-1-2.3-1.6-3.6-1.8V43.3c1.3-0.2,2.6-0.8,3.6-1.8c0.5-0.5,0.9-1,1.1-1.6H70c0.3,0.6,0.7,1.1,1.1,1.5c0.4,0.4,0.8,0.7,1.2,0.9
			L50.6,64.4z"/>
	</g>
</g>
</svg>
