<?xml version="1.0" encoding="utf-8"?>
<!-- Generator: Adobe Illustrator 18.1.1, SVG Export Plug-In . SVG Version: 6.00 Build 0)  -->
<!DOCTYPE svg PUBLIC "-//W3C//DTD SVG 1.1//EN" "http://www.w3.org/Graphics/SVG/1.1/DTD/svg11.dtd">
<svg version="1.1" id="Layer_1" xmlns="http://www.w3.org/2000/svg" xmlns:xlink="http://www.w3.org/1999/xlink" x="0px" y="0px"
	 viewBox="0 0 33.4 32.4" enable-background="new 0 0 33.4 32.4" xml:space="preserve">
<g>
	<g>
		<path fill-rule="evenodd" clip-rule="evenodd" fill="#333333" d="M24.7,8.7h-1.5v-2c0-0.6-0.4-1-1-1c-0.6,0-1,0.4-1,1v2h-1.5
			c-0.8,0-1.5,0.7-1.5,1.5c0,0.8,0.7,1.5,1.5,1.5h1.5v14c0,0.6,0.4,1,1,1c0.6,0,1-0.4,1-1v-14h1.5c0.8,0,1.5-0.7,1.5-1.5
			C26.2,9.4,25.5,8.7,24.7,8.7z M14.7,19.7h-1.5v-13c0-0.6-0.4-1-1-1c-0.6,0-1,0.4-1,1v13H9.7c-0.8,0-1.5,0.7-1.5,1.5
			c0,0.8,0.7,1.5,1.5,1.5h1.5v3c0,0.6,0.4,1,1,1c0.6,0,1-0.4,1-1v-3h1.5c0.8,0,1.5-0.7,1.5-1.5C16.2,20.4,15.5,19.7,14.7,19.7z"/>
	</g>
</g>
</svg>
