<?xml version="1.0" encoding="utf-8"?>
<!-- Generator: Adobe Illustrator 19.0.0, SVG Export Plug-In . SVG Version: 6.00 Build 0)  -->
<svg version="1.1" id="Layer_1" xmlns="http://www.w3.org/2000/svg" xmlns:xlink="http://www.w3.org/1999/xlink" x="0px" y="0px"
	 viewBox="0 0 90.8 78.5" style="enable-background:new 0 0 90.8 78.5;" xml:space="preserve">
<style type="text/css">
	.st0{fill:#FFFFFF;}
</style>
<g>
	<g id="XMLID_70_">
		<path id="XMLID_71_" class="st0" d="M68.4,56.8V25.2c2.9-0.4,5.1-2.9,5.1-5.8c0-3.3-2.7-5.9-5.9-5.9c-3,0-5.5,2.2-5.9,5.1H29.3
			c-0.4-2.9-2.9-5.1-5.9-5.1c-3.3,0-5.9,2.6-5.9,5.9c0,3,2.2,5.4,5.1,5.8v31.6c-2.9,0.4-5.1,2.9-5.1,5.8c0,3.3,2.7,5.9,5.9,5.9
			c2.8,0,5.1-1.9,5.8-4.5h32.6c0.6,2.6,3,4.5,5.8,4.5c3.3,0,5.9-2.6,5.9-5.9C73.5,59.6,71.3,57.2,68.4,56.8z M65.7,57L50.4,42.9
			c0.7-0.9,1-2.1,1-3.3c0-1.2-0.4-2.4-1-3.3L63.8,24c0.8,0.7,1.8,1.1,2.9,1.3v31.6C66.4,56.8,66.1,56.9,65.7,57z M62.7,22.7L49.2,35
			c-1-0.8-2.3-1.3-3.7-1.3c-1.4,0-2.7,0.5-3.7,1.3L28.3,22.7c0.5-0.7,0.8-1.6,1-2.5h32.4C61.8,21.2,62.2,22,62.7,22.7z M27.2,24
			l13.4,12.3c-0.7,0.9-1,2.1-1,3.3c0,1.2,0.4,2.4,1,3.3L25.3,57c-0.3-0.1-0.6-0.2-1-0.2V25.2C25.4,25.1,26.4,24.6,27.2,24z
			 M26.9,57.8l14.9-13.6c1,0.8,2.3,1.3,3.7,1.3c1.4,0,2.7-0.5,3.7-1.3l14.9,13.6c-1.4,1-2.4,2.7-2.5,4.5H29.4
			C29.3,60.5,28.3,58.8,26.9,57.8z"/>
	</g>
</g>
</svg>
