<?xml version="1.0" encoding="utf-8"?>
<!-- Generator: Adobe Illustrator 19.0.0, SVG Export Plug-In . SVG Version: 6.00 Build 0)  -->
<!DOCTYPE svg PUBLIC "-//W3C//DTD SVG 1.1//EN" "http://www.w3.org/Graphics/SVG/1.1/DTD/svg11.dtd">
<svg version="1.1" id="Layer_1" xmlns="http://www.w3.org/2000/svg" xmlns:xlink="http://www.w3.org/1999/xlink" x="0px" y="0px"
	 viewBox="0 0 28 35.3" enable-background="new 0 0 28 35.3" xml:space="preserve">
<g>
	<g id="XMLID_22_">
		<path id="XMLID_23_" fill="none" stroke="#333333" stroke-linejoin="round" stroke-miterlimit="10" d="M22.9,8.9l-5-3.4
			C17.3,5,16.4,5.1,16,5.7l-1.2,1.7l7.3,5l1.2-1.7C23.7,10.1,23.5,9.3,22.9,8.9z M6.5,19.1c-0.3,2.2,5.1,6,7.3,5L21,13.9l-7.3-5
			L6.5,19.1z M5.3,20.8c-0.5,1.1-1,6.4-0.8,7.8c0,0.3,0.1,0.4,0.2,0.5c0.5,0.4,6.8-2.6,7.8-3.4C10.3,26.4,5.3,22.9,5.3,20.8z"/>
	</g>
</g>
</svg>
