<?xml version="1.0" encoding="utf-8"?>
<!-- Generator: Adobe Illustrator 19.0.0, SVG Export Plug-In . SVG Version: 6.00 Build 0)  -->
<svg version="1.1" id="Layer_1" xmlns="http://www.w3.org/2000/svg" xmlns:xlink="http://www.w3.org/1999/xlink" x="0px" y="0px"
	 viewBox="0 0 90.8 78.5" style="enable-background:new 0 0 90.8 78.5;" xml:space="preserve">
<style type="text/css">
	.st0{fill:#CCCCCC;}
</style>
<g>
	<g id="XMLID_76_">
		<path id="XMLID_77_" class="st0" d="M17,26.5c-3.1,0-5.5,2.5-5.5,5.5s2.5,5.5,5.5,5.5c3.1,0,5.5-2.5,5.5-5.5S20.1,26.5,17,26.5z
			 M17,64.4c-3.1,0-5.5,2.5-5.5,5.5s2.5,5.5,5.5,5.5c3.1,0,5.5-2.5,5.5-5.5S20.1,64.4,17,64.4z M36,18.6c1.2,0,2.4-0.4,3.3-1.1
			l11.2,11.2c-0.7,0.9-1.1,2.1-1.1,3.3c0,3.1,2.5,5.5,5.5,5.5c3.1,0,5.5-2.5,5.5-5.5S58,26.5,55,26.5c-1.2,0-2.4,0.4-3.3,1.1
			L40.4,16.3c0.7-0.9,1.1-2.1,1.1-3.3c0-3.1-2.5-5.5-5.5-5.5c-3.1,0-5.5,2.5-5.5,5.5S33,18.6,36,18.6z M74,18.6
			c3.1,0,5.5-2.5,5.5-5.5S77,7.5,74,7.5S68.4,10,68.4,13S70.9,18.6,74,18.6z M36,45.5c-3.1,0-5.5,2.5-5.5,5.5s2.5,5.5,5.5,5.5
			c3.1,0,5.5-2.5,5.5-5.5S39.1,45.5,36,45.5z M74,45.5c-3.1,0-5.5,2.5-5.5,5.5c0,1.5,0.6,2.9,1.6,3.9L58.9,66c-1-1-2.4-1.6-3.9-1.6
			c-3.1,0-5.5,2.5-5.5,5.5s2.5,5.5,5.5,5.5c3.1,0,5.5-2.5,5.5-5.5c0-1-0.3-1.9-0.7-2.7l11.5-11.5c0.8,0.4,1.7,0.7,2.7,0.7
			c3.1,0,5.5-2.5,5.5-5.5S77,45.5,74,45.5z"/>
	</g>
</g>
</svg>
