<?xml version="1.0" encoding="utf-8"?>
<!-- Generator: Adobe Illustrator 19.0.0, SVG Export Plug-In . SVG Version: 6.00 Build 0)  -->
<svg version="1.1" id="Layer_1" xmlns="http://www.w3.org/2000/svg" xmlns:xlink="http://www.w3.org/1999/xlink" x="0px" y="0px"
	 viewBox="0 0 90.8 78.5" style="enable-background:new 0 0 90.8 78.5;" xml:space="preserve">
<style type="text/css">
	.st0{fill:#CCCCCC;}
</style>
<g>
	<g id="XMLID_44_">
		<path id="XMLID_45_" class="st0" d="M71.1,57.3V21.2c3.3-0.5,5.8-3.3,5.8-6.7c0-3.7-3-6.7-6.8-6.7c-3.4,0-6.2,2.5-6.7,5.8h-37
			c-0.5-3.3-3.3-5.8-6.7-5.8c-3.7,0-6.8,3-6.8,6.7c0,3.4,2.5,6.2,5.8,6.7v36.2c-3.3,0.5-5.8,3.3-5.8,6.7c0,3.7,3,6.7,6.8,6.7
			c3.2,0,5.9-2.2,6.6-5.1h37.3c0.7,3,3.4,5.1,6.6,5.1c3.7,0,6.8-3,6.8-6.7C76.9,60.6,74.4,57.8,71.1,57.3z M68,57.6L50.5,41.5
			c0.8-1.1,1.2-2.4,1.2-3.8c0-1.4-0.4-2.7-1.2-3.8l15.3-14.1c0.9,0.8,2.1,1.3,3.3,1.4v36.2C68.7,57.4,68.4,57.4,68,57.6z M64.5,18.3
			L49.2,32.4c-1.2-0.9-2.7-1.5-4.3-1.5s-3.1,0.6-4.3,1.5L25.3,18.3c0.6-0.8,1-1.8,1.1-2.9h37C63.5,16.5,63.9,17.5,64.5,18.3z
			 M23.9,19.7l15.3,14.1c-0.8,1.1-1.2,2.4-1.2,3.8c0,1.4,0.4,2.7,1.2,3.8L21.7,57.6c-0.4-0.1-0.7-0.2-1.1-0.2V21.2
			C21.9,21,23,20.5,23.9,19.7z M23.6,58.5l17-15.6c1.2,0.9,2.7,1.5,4.3,1.5s3.1-0.6,4.3-1.5l17,15.6c-1.6,1.2-2.7,3-2.8,5.2H26.4
			C26.3,61.5,25.2,59.7,23.6,58.5z"/>
	</g>
</g>
</svg>
