<svg version="1.1" xmlns="http://www.w3.org/2000/svg" xmlns:xlink="http://www.w3.org/1999/xlink" xmlns:a="http://ns.adobe.com/AdobeSVGViewerExtensions/3.0/" x="0px" y="0px" width="117.272px" height="79.447px" viewBox="0 0 117.272 79.447" style="enable-background:new 0 0 117.272 79.447;" xml:space="preserve"><defs></defs><path id="XMLID_2_" style="fill:#fff;" d="M87.178,46.6c-0.262-0.379-0.536-0.75-0.822-1.112c-0.143-0.181-0.29-0.359-0.439-0.535c-0.299-0.352-0.609-0.694-0.932-1.027c-0.161-0.166-0.325-0.33-0.492-0.491c-0.167-0.161-0.337-0.319-0.509-0.475c-1.208-1.089-2.552-2.045-4.016-2.842c0.008-0.222,0.012-0.443,0.012-0.663c0-10.05-8.176-18.227-18.227-18.227c-2.779,0-5.462,0.615-7.909,1.799c-1.498-2.115-3.31-3.944-5.356-5.436c-0.898,1.836-1.404,3.898-1.404,6.076c0,0.491,0.032,0.98,0.083,1.467c1.043,1.139,1.944,2.43,2.668,3.855l1.766,3.476l3.112-2.35c0.255-0.193,0.516-0.374,0.783-0.544c0.4-0.255,0.813-0.484,1.237-0.686c0.424-0.202,0.859-0.378,1.303-0.527c0.296-0.099,0.596-0.186,0.9-0.261c0.456-0.112,0.919-0.197,1.389-0.254c0.47-0.057,0.946-0.085,1.427-0.085c2.016,0,3.914,0.512,5.571,1.414c0.331,0.18,0.653,0.376,0.965,0.587c0.778,0.526,1.49,1.143,2.119,1.836c0.252,0.277,0.491,0.566,0.716,0.867c0.337,0.451,0.643,0.926,0.913,1.423c0.18,0.331,0.345,0.673,0.493,1.022c0.148,0.35,0.28,0.708,0.394,1.074c0.057,0.183,0.11,0.368,0.158,0.555c0.096,0.373,0.175,0.754,0.234,1.141c0.089,0.58,0.135,1.174,0.135,1.779c0,0.673-0.062,1.365-0.184,2.056l-0.462,2.613l2.463,0.986c0.645,0.258,1.264,0.559,1.853,0.897c0.196,0.113,0.39,0.23,0.579,0.351c0.455,0.291,0.892,0.605,1.307,0.941c0.277,0.224,0.545,0.457,0.803,0.7c0.258,0.242,0.507,0.494,0.746,0.754c0.358,0.39,0.694,0.799,1.006,1.224c1.404,1.917,2.324,4.179,2.644,6.606c0.083,0.628,0.128,1.267,0.128,1.915c0,0.455-0.022,0.905-0.064,1.35c-0.226,2.383-1.044,4.61-2.305,6.529c-0.808,1.229-1.797,2.332-2.932,3.265c-2.189,1.798-4.913,2.97-7.903,3.219l-5.312,0.056H25.045l-5.311-0.056C12.321,72.245,6.529,65.956,6.529,58.5c0-1.314,0.181-2.6,0.523-3.83c0.098-0.351,0.208-0.698,0.332-1.04c0.494-1.366,1.19-2.648,2.058-3.802c0.217-0.288,0.445-0.569,0.683-0.841c0.119-0.136,0.241-0.27,0.365-0.401c0.372-0.394,0.768-0.768,1.184-1.12c0.555-0.469,1.147-0.897,1.773-1.28c0.156-0.096,0.315-0.189,0.476-0.279c0.321-0.18,0.651-0.348,0.988-0.504c0.169-0.078,0.339-0.153,0.511-0.224c0.172-0.072,0.346-0.14,0.522-0.205l2.773-1.027l-0.748-2.861c-0.37-1.416-0.558-2.879-0.558-4.35c0-9.378,7.572-17.016,16.922-17.133c0.344-2.263,0.971-4.435,1.844-6.478c-0.539-0.036-1.081-0.057-1.627-0.057c-13.05,0-23.668,10.617-23.668,23.668c0,1.095,0.076,2.188,0.226,3.27C4.367,43.606,0,50.724,0,58.5c0,5.314,1.994,10.381,5.613,14.267c2.475,2.657,5.552,4.597,8.94,5.681c0.616,0.197,1.242,0.366,1.877,0.505c0.317,0.07,0.637,0.132,0.958,0.187c0.643,0.11,1.294,0.191,1.95,0.241l5.654,0.066l40.858,0l5.458-0.058l0.213-0.009c0.656-0.05,1.307-0.13,1.95-0.241c0.321-0.055,0.641-0.117,0.958-0.187c0.635-0.139,1.261-0.308,1.877-0.505c3.388-1.083,6.466-3.024,8.94-5.681c0.906-0.972,1.709-2.019,2.406-3.124c0.655-1.039,1.21-2.133,1.67-3.265c0.839-2.067,1.345-4.268,1.489-6.529c0.029-0.448,0.048-0.898,0.048-1.35c0-0.644-0.032-1.283-0.089-1.915C90.445,52.933,89.186,49.511,87.178,46.6z"/><path id="XMLID_1_" style="fill:#fff;" d="M106.378,27.051c0.008-0.222,0.012-0.443,0.012-0.663c0-10.05-8.176-18.227-18.227-18.227c-2.779,0-5.462,0.615-7.909,1.799C75.853,3.743,68.733,0,60.959,0c-1.414,0-2.8,0.125-4.147,0.364c-2.02,0.359-3.952,0.975-5.762,1.813c-0.201,0.093-0.401,0.189-0.599,0.287c-0.167,0.083-0.332,0.168-0.497,0.255c-0.882,0.465-1.732,0.984-2.544,1.554c-0.09,0.063-0.179,0.126-0.268,0.19c-0.23,0.166-0.458,0.336-0.682,0.511c-0.064,0.05-0.128,0.1-0.191,0.15c-1.888,1.498-3.542,3.278-4.9,5.275c-0.688,1.012-1.298,2.08-1.825,3.195c-0.116,0.245-0.227,0.492-0.335,0.742c-0.752,1.746-1.3,3.6-1.613,5.532c-0.187,1.156-0.29,2.339-0.303,3.544c-0.001,0.085-0.003,0.171-0.003,0.256c0,1.095,0.076,2.188,0.226,3.27c-6.741,3.6-11.108,10.718-11.108,18.494c0,1.661,0.195,3.297,0.573,4.881c0.832,3.485,2.552,6.715,5.04,9.386c0.264,0.284,0.536,0.559,0.813,0.826c1.944,1.87,4.209,3.328,6.67,4.322c0.69,0.279,1.396,0.522,2.115,0.726c0.168,0.048,0.336,0.094,0.505,0.137c0.205,0.053,0.411,0.102,0.617,0.149c0.377,0.085,0.756,0.158,1.139,0.222c0.247,0.041,0.495,0.08,0.744,0.112c0.372,0.049,0.746,0.09,1.123,0.119l5.654,0.066l25.984,0c1.787-1.7,3.001-3.991,3.322-6.529H51.455l-5.311-0.056c-1.158-0.096-2.277-0.331-3.34-0.688c-0.851-0.285-1.666-0.648-2.437-1.079c-0.193-0.108-0.383-0.22-0.57-0.336c-0.375-0.233-0.738-0.482-1.088-0.747c-1.052-0.795-1.992-1.729-2.793-2.774c-0.534-0.697-1.005-1.442-1.407-2.228c-1.004-1.965-1.57-4.181-1.57-6.511c0-6.006,3.783-11.442,9.414-13.526l2.773-1.027l-0.748-2.861c-0.078-0.298-0.146-0.599-0.208-0.901c-0.173-0.849-0.284-1.712-0.328-2.58c-0.015-0.289-0.022-0.579-0.022-0.869c0-0.222,0.006-0.443,0.015-0.663s0.024-0.439,0.04-0.657c0.178-2.325,0.821-4.52,1.838-6.495c0.544-1.057,1.193-2.052,1.936-2.967c3.145-3.874,7.942-6.356,13.309-6.356c4.054,0,7.862,1.406,10.866,3.874c1.202,0.987,2.275,2.145,3.184,3.451c0.114,0.163,0.225,0.329,0.333,0.497c0.325,0.503,0.627,1.027,0.903,1.57l1.766,3.476l3.112-2.35c2.041-1.542,4.476-2.357,7.04-2.357c0.266,0,0.531,0.009,0.793,0.027c1.31,0.089,2.561,0.395,3.719,0.881c0.463,0.195,0.911,0.418,1.342,0.668c0.128,0.074,0.254,0.15,0.378,0.229c0.41,0.259,0.803,0.543,1.177,0.85c0.374,0.307,0.728,0.636,1.061,0.986c0.167,0.175,0.328,0.355,0.483,0.54c1.089,1.294,1.904,2.827,2.352,4.508c0.256,0.96,0.393,1.969,0.393,3.009c0,0.673-0.062,1.365-0.184,2.056l-0.462,2.613l0.986,0.395l1.477,0.591c0.264,0.106,0.522,0.22,0.776,0.34c0.163,0.076,0.324,0.155,0.483,0.237c0.15,0.077,0.298,0.157,0.445,0.238c0.353,0.197,0.695,0.407,1.027,0.631c0.092,0.062,0.183,0.124,0.273,0.188c3.526,2.494,5.768,6.454,6.035,10.865c0.018,0.294,0.027,0.59,0.027,0.888c0,1.207-0.152,2.383-0.438,3.51c-0.858,3.379-2.923,6.311-5.717,8.281c-0.113,0.079-0.227,0.157-0.342,0.233c-0.4,0.266-0.815,0.511-1.242,0.737c-0.196,0.103-0.394,0.202-0.594,0.296c-0.178,0.084-0.358,0.164-0.54,0.24c-0.251,0.106-0.506,0.204-0.764,0.296c-1.131,0.401-2.326,0.667-3.568,0.77l-3.178,0.034c-0.121,2.247-0.544,4.446-1.255,6.543l4.614-0.049l0.213-0.009c0.328-0.025,0.655-0.058,0.98-0.098c1.95-0.241,3.84-0.752,5.621-1.51c2.672-1.138,5.1-2.832,7.125-5.006c2.489-2.672,4.209-5.902,5.04-9.386c0.378-1.584,0.573-3.22,0.573-4.881C117.272,37.665,113.069,30.694,106.378,27.051z"/></svg>
