<?xml version="1.0" standalone="no"?>
<!DOCTYPE svg PUBLIC "-//W3C//DTD SVG 20010904//EN"
 "http://www.w3.org/TR/2001/REC-SVG-20010904/DTD/svg10.dtd">
<svg version="1.0" xmlns="http://www.w3.org/2000/svg"
 width="1040.000000pt" height="1040.000000pt" viewBox="0 0 1040.000000 1040.000000"
 preserveAspectRatio="xMidYMid meet">
<metadata>
Created by potrace 1.11, written by Peter Selinger 2001-2013
</metadata>
<g transform="translate(0.000000,1040.000000) scale(0.100000,-0.100000)"
fill="#000000" stroke="none">
<path d="M5259 8646 c-2 -2 -31 -6 -64 -10 -33 -3 -71 -9 -85 -12 -14 -3 -36
-7 -50 -10 -14 -3 -32 -7 -40 -9 -8 -2 -30 -7 -47 -10 -55 -9 -260 -74 -351
-110 -133 -54 -352 -189 -492 -304 -95 -78 -262 -252 -343 -359 -121 -159
-181 -266 -292 -527 -38 -88 -94 -331 -112 -485 -10 -84 -10 -344 -1 -436 l8
-71 -83 -51 c-45 -27 -119 -77 -162 -111 -113 -85 -179 -150 -322 -315 -52
-59 -155 -225 -208 -332 -45 -91 -115 -276 -130 -343 -19 -81 -44 -228 -49
-281 -7 -74 -8 -312 -2 -350 3 -14 9 -56 15 -95 17 -108 20 -123 53 -235 92
-320 286 -629 530 -848 249 -222 565 -373 875 -417 21 -3 49 -8 63 -10 77 -15
339 -18 1540 -20 l1325 -1 47 48 c119 123 211 311 234 478 l6 39 -1369 1
c-1567 1 -1652 2 -1748 24 -5 2 -28 6 -50 11 -59 12 -236 79 -281 107 -21 13
-52 30 -69 38 -16 8 -48 27 -70 43 -22 15 -51 35 -65 44 -55 37 -201 195 -257
279 -113 168 -178 331 -210 530 -14 87 -8 322 11 408 70 322 237 581 498 774
31 23 60 42 64 42 4 0 15 6 23 14 39 32 162 88 316 141 61 21 115 42 121 46 8
6 4 36 -13 101 -65 261 -74 318 -78 492 -3 131 1 195 15 280 55 335 196 612
427 838 220 217 463 341 793 403 90 17 322 24 410 11 222 -31 436 -105 599
-208 60 -37 170 -117 197 -143 6 -5 31 -28 55 -50 141 -131 217 -244 393 -592
31 -62 60 -114 64 -117 4 -2 61 36 127 86 256 191 340 237 520 282 88 22 144
29 255 29 241 2 516 -118 705 -307 87 -87 132 -151 187 -261 30 -60 76 -180
69 -180 -1 0 2 -12 8 -27 15 -40 24 -111 25 -208 2 -92 -3 -138 -35 -303 -11
-59 -19 -112 -17 -118 2 -5 86 -43 188 -84 218 -88 312 -147 442 -278 181
-182 300 -411 344 -660 15 -90 21 -277 10 -347 -3 -19 -8 -51 -10 -70 -33
-251 -158 -494 -355 -690 -170 -168 -292 -240 -531 -311 -125 -37 -172 -43
-357 -43 -146 -1 -153 -2 -154 -21 -4 -141 -57 -405 -104 -527 -7 -17 7 -18
201 -18 287 0 405 15 599 76 351 110 611 281 849 557 166 194 319 490 372 722
1 6 9 39 17 75 28 122 43 266 41 395 -3 149 -9 202 -48 401 -21 107 -108 322
-188 464 -138 248 -381 494 -645 654 l-63 37 -1 92 c0 51 -3 106 -5 122 -2 17
-7 50 -10 75 -4 25 -8 52 -9 60 -6 49 -52 208 -83 285 -170 434 -520 768 -962
918 -179 61 -310 82 -510 82 -114 -1 -167 -4 -273 -20 -77 -11 -233 -56 -314
-91 -45 -20 -87 -34 -92 -32 -5 1 -40 41 -77 88 -241 300 -559 525 -922 654
-80 28 -207 63 -262 72 -19 3 -37 7 -40 9 -3 2 -33 7 -65 10 -33 4 -69 9 -80
12 -23 6 -381 13 -386 9z"/>
<path d="M2978 7475 c-2 -2 -33 -6 -69 -9 -437 -41 -892 -261 -1223 -591 -311
-310 -505 -695 -581 -1155 -20 -116 -23 -251 -12 -539 l2 -44 -76 -46 c-125
-76 -228 -158 -345 -275 -289 -291 -466 -648 -521 -1051 -10 -76 -10 -392 0
-464 11 -81 34 -188 58 -266 11 -38 21 -74 23 -80 7 -34 65 -170 105 -248 177
-348 455 -622 806 -796 124 -62 320 -137 379 -146 12 -2 59 -11 106 -20 133
-25 368 -28 2420 -28 1952 -1 2363 3 2460 23 30 6 69 13 85 16 163 27 397 120
575 227 217 131 439 353 595 595 82 127 191 386 211 502 3 14 9 39 14 55 40
136 56 437 31 595 -16 101 -50 246 -67 293 -8 20 -14 40 -14 45 0 15 -34 111
-68 192 -108 256 -273 493 -463 661 -41 36 -126 100 -189 142 -63 42 -122 82
-132 89 -13 11 -17 38 -21 143 -6 152 -44 351 -86 450 -5 11 -19 45 -31 75
-36 91 -169 324 -199 350 -3 3 -31 34 -61 70 -258 305 -616 495 -1030 546 -55
7 -278 7 -335 0 -161 -19 -310 -58 -446 -116 -60 -25 -74 -28 -81 -17 -43 79
-261 304 -390 404 l-66 52 -30 -72 c-63 -153 -89 -287 -88 -457 l1 -125 56
-70 c31 -38 75 -98 98 -133 40 -60 231 -419 231 -434 0 -17 19 -4 145 94 242
188 344 241 560 289 121 27 318 26 391 -2 13 -4 24 -7 24 -4 0 7 165 -52 220
-80 98 -49 216 -133 274 -195 87 -95 177 -240 227 -367 58 -147 72 -336 38
-528 -25 -142 -32 -186 -33 -208 -1 -14 22 -28 99 -58 257 -102 442 -215 539
-328 12 -14 35 -41 52 -60 227 -263 332 -613 287 -961 -38 -300 -146 -519
-370 -751 -163 -168 -425 -307 -633 -335 -25 -3 -49 -8 -53 -11 -20 -12 -481
-15 -2297 -15 -1779 0 -2227 3 -2315 16 -160 24 -348 96 -485 184 -418 271
-643 777 -559 1255 26 147 27 152 53 220 85 226 232 418 442 575 73 55 230
140 304 165 91 32 243 86 245 89 2 2 -14 73 -36 158 -52 211 -71 334 -72 470
0 273 73 530 221 772 29 48 58 93 65 100 7 7 25 31 42 53 77 105 264 266 400
346 207 121 448 194 678 204 56 2 57 3 63 47 12 82 60 264 101 381 25 71 42
132 38 135 -6 6 -281 12 -287 7z"/>
</g>
</svg>
